<?xml version="1.0" encoding="utf-8"?>
<!-- Generator: Adobe Illustrator 21.1.0, SVG Export Plug-In . SVG Version: 6.00 Build 0)  -->
<svg version="1.1" id="Lager_1" xmlns="http://www.w3.org/2000/svg" xmlns:xlink="http://www.w3.org/1999/xlink" x="0px" y="0px"
	 viewBox="0 0 300.3 129.4" style="enable-background:new 0 0 300.3 129.4;" xml:space="preserve">
<style type="text/css">
	.st0{fill:#000;}
	.st1{fill:none;}
</style>
<g>
	<g>
		<path class="st0" d="M0.3,13.6V2.4h13.3v11.2H0.3z M0.3,78.5V22.4h13.3v56.1H0.3z"/>
		<path class="st0" d="M47.8,79.4c-3.5,0-7-1.7-10.5-5v4.1H24.1V0h13.3v26.7c3.4-3.4,7.2-5.1,11.3-5.1c2,0,3.7,0.5,5.3,1.4
			c1.5,0.9,2.7,2,3.6,3.3c0.9,1.3,1.6,2.9,2.1,4.6c0.6,1.8,0.9,3.4,1.1,5c0.2,1.5,0.3,3.1,0.3,4.7v18.4c0,2.8-0.2,5.5-0.7,7.8
			c-0.5,2.4-1.2,4.5-2.2,6.5c-1,1.9-2.4,3.5-4.1,4.5C52.2,78.8,50.2,79.4,47.8,79.4z M43.2,69.9c1,0,1.8-0.3,2.4-0.8
			c0.6-0.5,1.1-1.3,1.4-2.4c0.3-1.1,0.5-2.2,0.6-3.3c0.1-1.1,0.1-2.5,0.1-4.1V40c0-1.3-0.1-2.5-0.2-3.5c-0.1-1-0.4-2-0.7-2.9
			c-0.3-0.9-0.9-1.6-1.5-2.1s-1.5-0.7-2.5-0.7c-1.8,0-3.6,0.8-5.5,2.2v35.2C39.2,69.3,41.1,69.9,43.2,69.9z"/>
		<path class="st0" d="M70.3,78.5V22.4h13.3v5.5c4.5-4.2,9.1-6.3,13.7-6.3c3.2,0,5.5,1.2,7,3.5c1.5,2.3,2.2,5.2,2.2,8.6v44.8H93.1
			V36.6c0-1.8-0.3-3.1-0.8-3.9c-0.5-0.9-1.5-1.3-2.9-1.2c-1.6,0-3.6,0.9-5.9,2.6v44.5H70.3z"/>
		<path class="st0" d="M116.4,93.5v-9.6c4,0,6.7-0.4,8-1.2c1.3-0.8,1.7-2.4,1.3-4.9c-0.4-2.2-1.1-5-1.9-8.2
			c-0.9-3.7-2.9-11.7-6.1-23.9c-3.2-12.2-5.1-20-6-23.3h13l7,36.8l6.1-36.8h12.9l-13.3,59c-1,4.4-3.1,7.5-6.4,9.4
			c-3.3,1.8-7.6,2.7-12.9,2.7H116.4z"/>
		<path class="st0" d="M172.2,79.3c-2.6,0-4.7-0.5-6.5-1.3c-1.8-0.8-3.2-2-4.1-3.5c-1-1.5-1.7-3.2-2.1-5.1c-0.4-1.9-0.6-4.1-0.6-6.6
			V31.2h-5.5v-8.8h5.5V6h13.3v16.5h8.5v8.8h-8.5v32.3c0,1.8,0.4,3.1,1.2,4c0.8,0.8,2.1,1.2,3.9,1.3c1.2,0,2.6-0.1,4-0.3v10.1
			C177.5,79.1,174.5,79.3,172.2,79.3z"/>
		<path class="st0" d="M204.4,79.3c-2.6,0-4.7-0.5-6.5-1.3c-1.8-0.8-3.2-2-4.1-3.5c-1-1.5-1.7-3.2-2.1-5.1c-0.4-1.9-0.6-4.1-0.6-6.6
			V31.2h-5.5v-8.8h5.5V6h13.3v16.5h8.5v8.8h-8.5v32.3c0,1.8,0.4,3.1,1.2,4c0.8,0.8,2.1,1.2,3.9,1.3c1.2,0,2.6-0.1,4-0.3v10.1
			C209.7,79.1,206.7,79.3,204.4,79.3z"/>
		<path class="st0" d="M222.3,78.5V68.4h5.8v10.1H222.3z"/>
		<path class="st0" d="M251.3,79.4c-4.4,0-7.8-1.4-10.4-4.3c-2.6-2.8-4.1-6.8-4.5-11.7l4.4-1.3c0.7,8.9,4.3,13.4,10.8,13.4
			c2.8,0,5-0.8,6.5-2.3c1.6-1.6,2.4-3.8,2.4-6.6c0-4.3-2.7-8.7-8.2-13.3l-6.5-5.5c-2.9-2.4-4.9-4.7-6.2-6.8
			c-1.3-2.1-1.9-4.6-1.9-7.3c0-3.8,1.1-6.8,3.4-8.9c2.3-2.1,5.4-3.2,9.3-3.2c4,0,7.1,1.3,9.3,3.9c2.1,2.6,3.3,6.2,3.4,10.8l-3.8,1.1
			c-0.3-8-3.1-12-8.6-12c-2.5,0-4.5,0.6-6,1.9c-1.5,1.3-2.2,3.1-2.2,5.5c0,2.2,0.4,4.1,1.2,5.6c0.8,1.5,2.3,3.2,4.6,5.2l6.7,5.9
			c1.6,1.4,2.9,2.5,3.8,3.5c0.9,0.9,2,2.1,3.1,3.5c1.1,1.5,1.9,3,2.5,4.6c0.5,1.6,0.8,3.4,0.9,5.3c0,4-1.2,7.2-3.7,9.5
			C258.9,78.3,255.5,79.4,251.3,79.4z"/>
		<path class="st0" d="M286.4,79.4c-1.9,0-3.5-0.2-4.9-0.6c-1.4-0.4-2.7-1.1-4-2.1c-1.2-1-2.2-2.3-3-3.9c-0.8-1.6-1.4-3.7-1.8-6.2
			c-0.4-2.5-0.6-5.5-0.6-8.9v-15c0-3.4,0.2-6.4,0.7-8.9c0.4-2.5,1-4.6,1.8-6.1c0.8-1.6,1.8-2.8,3-3.7c1.2-0.9,2.6-1.6,4-1.9
			c1.4-0.3,3-0.5,4.9-0.5c5.1,0,8.7,1.7,10.7,5c2,3.4,3,9.1,3,17.3l-0.1,5.4h-22.9v8.9c0,6.6,0.7,11.1,2.1,13.6
			c1.4,2.5,3.7,3.7,7,3.7c0.9,0,1.8-0.1,2.5-0.2c0.7-0.1,1.5-0.4,2.3-0.9c0.9-0.5,1.5-1.1,2.1-1.9c0.5-0.8,1-2,1.3-3.5
			c0.4-1.5,0.5-3.3,0.5-5.4v-4.2h5.1v3.7c0,5.2-1.1,9.2-3.2,12C295,78,291.4,79.4,286.4,79.4z M277.3,46.1h17.9v-4.4
			c0-2.2,0-4.1-0.1-5.6c-0.1-1.5-0.3-3-0.7-4.5c-0.3-1.5-0.8-2.6-1.4-3.5c-0.6-0.8-1.5-1.5-2.5-2c-1.1-0.5-2.4-0.8-3.9-0.8
			c-2.2,0-4,0.4-5.3,1.3c-1.3,0.9-2.2,2.5-2.9,4.9c-0.7,2.4-1,5.8-1,10.2V46.1z"/>
	</g>
	<g>
		<path class="st0" d="M0,121.7l2.8-27h10.3l-0.3,2.6H6.2l-1,9.1h5.2l-0.3,2.6H5l-1.3,12.7H0z"/>
		<path class="st0" d="M19.2,121.5c-0.8,0.3-1.7,0.5-2.7,0.5s-1.9-0.2-2.6-0.5c-0.7-0.3-1.2-0.8-1.6-1.4c-0.3-0.6-0.6-1.4-0.7-2.2
			c0-0.4-0.1-0.8-0.1-1.2c0-0.6,0-1.1,0.1-1.8l0.6-5.5c0.2-2.3,0.9-4.1,1.8-5.3c1-1.2,2.5-1.8,4.5-1.8c1,0,1.9,0.2,2.6,0.5
			c0.7,0.3,1.2,0.8,1.6,1.4c0.3,0.6,0.6,1.4,0.7,2.2c0.1,0.4,0.1,0.8,0.1,1.2c0,0.5,0,1.1-0.1,1.7l-0.6,5.5c-0.1,1.1-0.3,2.1-0.6,3
			c-0.3,0.8-0.7,1.6-1.1,2.2C20.6,120.7,20,121.2,19.2,121.5z M14.2,100.2l0.4-3.6h3.5l-0.4,3.6H14.2z M16,119.3
			c0.2,0.1,0.5,0.1,0.8,0.1s0.6,0,0.8-0.1s0.4-0.2,0.6-0.3c0.2-0.1,0.3-0.3,0.4-0.6c0.1-0.2,0.2-0.5,0.3-0.7
			c0.1-0.2,0.1-0.5,0.2-0.8c0.1-0.4,0.1-0.7,0.1-0.9s0.1-0.5,0.1-1l0.6-6c0-0.4,0.1-0.7,0.1-1c0-0.2,0-0.5,0-0.9c0-0.4,0-0.6,0-0.8
			c0-0.2-0.1-0.4-0.2-0.7c-0.1-0.2-0.2-0.4-0.3-0.6s-0.3-0.2-0.5-0.3c-0.2-0.1-0.5-0.1-0.8-0.1c-0.3,0-0.6,0.1-0.9,0.2
			c-0.3,0.1-0.5,0.3-0.7,0.5c-0.2,0.2-0.3,0.5-0.4,0.7c-0.1,0.2-0.2,0.5-0.3,0.9c-0.1,0.4-0.1,0.7-0.2,1c0,0.3-0.1,0.7-0.1,1.1
			l-0.6,6c0,0.4-0.1,0.7-0.1,1c0,0.2,0,0.5,0,0.9s0,0.6,0,0.8c0,0.2,0.1,0.4,0.2,0.7c0.1,0.2,0.2,0.4,0.3,0.6
			C15.7,119.1,15.8,119.3,16,119.3z M19.9,100.2l0.4-3.6h3.5l-0.4,3.6H19.9z"/>
		<path class="st0" d="M25.5,121.7l2-19.3H31l-0.3,2.7c1.4-2,2.9-3,4.6-3c0.1,0,0.2,0,0.6,0l-0.4,3.8c-0.6-0.2-1.2-0.4-1.8-0.4
			c-0.6,0-1.2,0.1-1.7,0.4s-1,0.8-1.5,1.5L29,121.7H25.5z"/>
		<path class="st0" d="M48.6,121.5c-0.8,0.3-1.7,0.5-2.7,0.5c-1,0-1.9-0.2-2.6-0.5c-0.7-0.3-1.2-0.8-1.6-1.4s-0.6-1.4-0.7-2.2
			c0-0.4-0.1-0.8-0.1-1.2c0-0.6,0-1.1,0.1-1.8l0.6-5.5c0.2-2.3,0.9-4.1,1.8-5.3c1-1.2,2.5-1.8,4.5-1.8c1,0,1.9,0.2,2.6,0.5
			c0.7,0.3,1.2,0.8,1.6,1.4c0.3,0.6,0.6,1.4,0.7,2.2c0.1,0.4,0.1,0.8,0.1,1.2c0,0.5,0,1.1-0.1,1.7l-0.6,5.5c-0.1,1.1-0.3,2.1-0.6,3
			c-0.3,0.8-0.7,1.6-1.1,2.2C49.9,120.7,49.3,121.2,48.6,121.5z M45.4,119.3c0.2,0.1,0.5,0.1,0.8,0.1s0.6,0,0.8-0.1
			c0.2-0.1,0.4-0.2,0.6-0.3c0.2-0.1,0.3-0.3,0.4-0.6s0.2-0.5,0.3-0.7c0.1-0.2,0.1-0.5,0.2-0.8s0.1-0.7,0.1-0.9s0.1-0.5,0.1-1l0.6-6
			c0-0.4,0.1-0.7,0.1-1c0-0.2,0-0.5,0-0.9c0-0.4,0-0.6,0-0.8c0-0.2-0.1-0.4-0.2-0.7c-0.1-0.2-0.2-0.4-0.3-0.6s-0.3-0.2-0.5-0.3
			c-0.2-0.1-0.5-0.1-0.8-0.1c-0.3,0-0.6,0.1-0.9,0.2s-0.5,0.3-0.7,0.5s-0.3,0.5-0.4,0.7c-0.1,0.2-0.2,0.5-0.3,0.9
			c-0.1,0.4-0.1,0.7-0.2,1c0,0.3-0.1,0.7-0.1,1.1l-0.6,6c0,0.4-0.1,0.7-0.1,1c0,0.2,0,0.5,0,0.9c0,0.4,0,0.6,0,0.8
			c0,0.2,0.1,0.4,0.2,0.7c0.1,0.2,0.2,0.4,0.3,0.6C45,119.1,45.2,119.3,45.4,119.3z"/>
		<path class="st0" d="M59.1,122c-1.6,0-2.8-0.5-3.6-1.5c-0.8-0.9-1.2-2.2-1.2-3.7c0-0.1,0-0.2,0-0.2l3-0.9c0,1.3,0.2,2.2,0.6,2.8
			c0.4,0.6,0.9,0.9,1.7,0.9c0.7,0,1.2-0.2,1.7-0.6c0.5-0.4,0.7-1,0.7-1.6c0-0.1,0-0.1,0-0.2c0-0.9-0.4-1.8-1.3-2.6l-2.9-2.7
			c-0.7-0.7-1.3-1.4-1.6-2.1c-0.2-0.5-0.4-1.1-0.4-1.8c0-0.3,0-0.5,0-0.8c0.2-1.5,0.8-2.7,1.7-3.5c1-0.8,2.2-1.2,3.7-1.2
			c1.5,0,2.5,0.5,3.3,1.4c0.7,0.9,1.1,2.1,1,3.5c0,0.1,0,0.1,0,0.2l-2.4,0.9c0-1.1-0.2-1.9-0.5-2.5c-0.3-0.6-0.8-0.9-1.5-0.9
			c-0.6,0-1.1,0.2-1.5,0.6c-0.4,0.4-0.6,0.9-0.7,1.4c0,0.1,0,0.2,0,0.2c0,0.7,0.3,1.3,0.8,1.8l3,3.1c0.8,0.8,1.4,1.5,1.8,2.3
			c0.3,0.6,0.5,1.4,0.5,2.2c0,0.2,0,0.5,0,0.7c-0.2,1.6-0.8,2.8-1.8,3.6C62.1,121.6,60.8,122,59.1,122z"/>
		<path class="st0" d="M71.5,122c-1.6,0-2.8-0.5-3.6-1.5c-0.8-0.9-1.2-2.2-1.2-3.7c0-0.1,0-0.2,0-0.2l3-0.9c0,1.3,0.2,2.2,0.6,2.8
			c0.4,0.6,0.9,0.9,1.7,0.9c0.7,0,1.2-0.2,1.7-0.6c0.5-0.4,0.7-1,0.7-1.6c0-0.1,0-0.1,0-0.2c0-0.9-0.4-1.8-1.3-2.6l-2.9-2.7
			c-0.7-0.7-1.3-1.4-1.6-2.1c-0.2-0.5-0.4-1.1-0.4-1.8c0-0.3,0-0.5,0-0.8c0.2-1.5,0.8-2.7,1.7-3.5c1-0.8,2.2-1.2,3.7-1.2
			c1.5,0,2.5,0.5,3.3,1.4c0.7,0.9,1.1,2.1,1,3.5c0,0.1,0,0.1,0,0.2l-2.4,0.9c0-1.1-0.2-1.9-0.5-2.5c-0.3-0.6-0.8-0.9-1.5-0.9
			c-0.6,0-1.1,0.2-1.5,0.6c-0.4,0.4-0.6,0.9-0.7,1.4c0,0.1,0,0.2,0,0.2c0,0.7,0.3,1.3,0.8,1.8l3,3.1c0.8,0.8,1.4,1.5,1.8,2.3
			c0.3,0.6,0.5,1.4,0.5,2.2c0,0.2,0,0.5,0,0.7c-0.2,1.6-0.8,2.8-1.8,3.6S73.2,122,71.5,122z"/>
		<path class="st0" d="M88.6,122c-1.6,0-2.8-0.5-3.6-1.5c-0.8-0.9-1.2-2.2-1.2-3.7c0-0.1,0-0.2,0-0.2l3-0.9c0,1.3,0.2,2.2,0.6,2.8
			c0.4,0.6,0.9,0.9,1.7,0.9c0.7,0,1.2-0.2,1.7-0.6c0.5-0.4,0.7-1,0.7-1.6c0-0.1,0-0.1,0-0.2c0-0.9-0.4-1.8-1.3-2.6l-2.9-2.7
			c-0.7-0.7-1.3-1.4-1.6-2.1c-0.2-0.5-0.4-1.1-0.4-1.8c0-0.3,0-0.5,0-0.8c0.2-1.5,0.8-2.7,1.7-3.5c1-0.8,2.2-1.2,3.7-1.2
			c1.5,0,2.5,0.5,3.3,1.4c0.7,0.9,1.1,2.1,1,3.5c0,0.1,0,0.1,0,0.2l-2.4,0.9c0-1.1-0.2-1.9-0.5-2.5c-0.3-0.6-0.8-0.9-1.5-0.9
			c-0.6,0-1.1,0.2-1.5,0.6c-0.4,0.4-0.6,0.9-0.7,1.4c0,0.1,0,0.2,0,0.2c0,0.7,0.3,1.3,0.8,1.8l3,3.1c0.8,0.8,1.4,1.5,1.8,2.3
			c0.3,0.6,0.5,1.4,0.5,2.2c0,0.2,0,0.5,0,0.7c-0.2,1.6-0.8,2.8-1.8,3.6S90.2,122,88.6,122z"/>
		<path class="st0" d="M104.4,121.5c-0.8,0.3-1.7,0.5-2.7,0.5c-1,0-1.9-0.2-2.6-0.5c-0.7-0.3-1.2-0.8-1.6-1.4s-0.6-1.4-0.7-2.2
			c0-0.4-0.1-0.8-0.1-1.2c0-0.6,0-1.1,0.1-1.8l0.6-5.5c0.2-2.3,0.9-4.1,1.8-5.3c1-1.2,2.5-1.8,4.5-1.8c1,0,1.9,0.2,2.6,0.5
			c0.7,0.3,1.2,0.8,1.6,1.4c0.3,0.6,0.6,1.4,0.7,2.2c0.1,0.4,0.1,0.8,0.1,1.2c0,0.5,0,1.1-0.1,1.7l-0.6,5.5c-0.1,1.1-0.3,2.1-0.6,3
			c-0.3,0.8-0.7,1.6-1.1,2.2C105.8,120.7,105.2,121.2,104.4,121.5z M101.2,119.3c0.2,0.1,0.5,0.1,0.8,0.1s0.6,0,0.8-0.1
			s0.4-0.2,0.6-0.3c0.2-0.1,0.3-0.3,0.4-0.6s0.2-0.5,0.3-0.7c0.1-0.2,0.1-0.5,0.2-0.8c0.1-0.4,0.1-0.7,0.1-0.9s0.1-0.5,0.1-1l0.6-6
			c0-0.4,0.1-0.7,0.1-1c0-0.2,0-0.5,0-0.9c0-0.4,0-0.6,0-0.8c0-0.2-0.1-0.4-0.2-0.7c-0.1-0.2-0.2-0.4-0.3-0.6
			c-0.1-0.1-0.3-0.2-0.5-0.3s-0.5-0.1-0.8-0.1c-0.3,0-0.6,0.1-0.9,0.2s-0.5,0.3-0.7,0.5s-0.3,0.5-0.4,0.7c-0.1,0.2-0.2,0.5-0.3,0.9
			c-0.1,0.4-0.1,0.7-0.2,1c0,0.3-0.1,0.7-0.1,1.1l-0.6,6c0,0.4-0.1,0.7-0.1,1c0,0.2,0,0.5,0,0.9c0,0.4,0,0.6,0,0.8
			c0,0.2,0.1,0.4,0.2,0.7c0.1,0.2,0.2,0.4,0.3,0.6C100.9,119.1,101,119.3,101.2,119.3z"/>
		<path class="st0" d="M110.6,121.7l2-19.3h3.4l-0.2,1.9c1.7-1.4,3.3-2.2,4.9-2.2c1.4,0,2.3,0.8,2.5,2.4c1.8-1.6,3.5-2.4,5.1-2.4
			c0.5,0,1,0.1,1.4,0.3s0.6,0.5,0.8,0.9c0.2,0.4,0.3,0.8,0.3,1.3c0,0.2,0,0.4,0,0.7c0,0.3,0,0.5-0.1,0.8l-1.6,15.6h-3.4l1.5-14.6
			c0-0.2,0-0.4,0-0.6c0-0.5-0.1-0.8-0.2-1.1c-0.2-0.4-0.6-0.5-1.2-0.5c-0.7,0-1.7,0.4-2.7,1.3c0,0,0,0.1,0,0.2c0,0.1,0,0.1,0,0.2
			l-1.6,15.2h-3.4l1.5-14.6c0-0.2,0-0.4,0-0.6c0-0.5,0-0.8-0.2-1.1c-0.2-0.4-0.6-0.5-1.2-0.5c-0.7,0-1.6,0.4-2.7,1.2l-1.6,15.6
			H110.6z"/>
		<path class="st0" d="M178.6,121.7l2-19.3h3.4l-2,19.3H178.6z M181,99.7l0.4-3.7h3.5l-0.4,3.7H181z"/>
		<path class="st0" d="M185.9,121.7l2-19.3h3.4l-0.2,1.9c1.7-1.5,3.4-2.2,4.9-2.2c0.5,0,1,0.1,1.4,0.3s0.6,0.5,0.8,0.9
			c0.2,0.4,0.3,0.8,0.3,1.3c0,0.2,0,0.4,0,0.6c0,0.3,0,0.5-0.1,0.8l-1.6,15.6h-3.4l1.5-14.6c0-0.2,0-0.4,0-0.6c0-0.5,0-0.8-0.2-1.1
			c-0.2-0.4-0.6-0.5-1.2-0.5c-0.7,0-1.7,0.4-2.7,1.3l-1.6,15.6H185.9z"/>
		<path class="st0" d="M200.5,121.7l2-19.3h3.4l-0.2,1.9c1.7-1.5,3.4-2.2,4.9-2.2c0.5,0,1,0.1,1.4,0.3s0.6,0.5,0.8,0.9
			c0.2,0.4,0.3,0.8,0.3,1.3c0,0.2,0,0.4,0,0.6c0,0.3,0,0.5-0.1,0.8l-1.6,15.6h-3.4l1.5-14.6c0-0.2,0-0.4,0-0.6c0-0.5,0-0.8-0.2-1.1
			c-0.2-0.4-0.6-0.5-1.2-0.5c-0.7,0-1.7,0.4-2.7,1.3l-1.6,15.6H200.5z"/>
		<path class="st0" d="M220.3,122c-1.1,0-2-0.2-2.7-0.5c-0.7-0.3-1.2-0.8-1.6-1.4c-0.3-0.7-0.6-1.5-0.7-2.4c0-0.3,0-0.7,0-1.1
			c0-0.7,0-1.4,0.1-2.2l0.5-4.5c0.1-1.3,0.3-2.5,0.6-3.4c0.3-0.9,0.7-1.7,1.2-2.4c0.5-0.7,1.1-1.1,1.9-1.5c0.8-0.3,1.7-0.5,2.8-0.5
			c1.2,0,2.1,0.2,2.8,0.6s1.2,0.9,1.5,1.6c0.3,0.7,0.4,1.6,0.5,2.6c0,0.2,0,0.4,0,0.6c0,0.9-0.1,1.9-0.2,2.9l-0.2,1.6h-7.6l-0.3,2.6
			c0,0.4-0.1,0.6-0.1,0.8s0,0.4-0.1,0.7c0,0.3,0,0.5,0,0.7s0,0.3,0,0.6c0,0.3,0,0.4,0.1,0.6c0,0.1,0.1,0.3,0.2,0.4s0.1,0.3,0.2,0.4
			c0.1,0.1,0.2,0.2,0.3,0.3s0.3,0.2,0.4,0.2s0.4,0,0.6,0c0.8,0,1.3-0.3,1.7-0.8c0.4-0.5,0.6-1.3,0.7-2.4l0.1-1.2h3.4l-0.1,0.8
			C225.9,120,223.9,122,220.3,122z M219.3,110.3h4.2l0.2-1.7c0.1-0.6,0.1-1.1,0.1-1.6c0-0.2,0-0.3,0-0.4c0-0.6-0.2-1-0.4-1.3
			s-0.7-0.4-1.3-0.4c-0.9,0-1.5,0.3-1.8,0.9c-0.4,0.6-0.6,1.8-0.8,3.5L219.3,110.3z"/>
		<path class="st0" d="M235.7,122c-1.1,0-2.2-0.6-3.1-1.7l-0.1,1.4H229l2.8-27h3.4l-1,9.2c1.2-1.2,2.4-1.8,3.8-1.8
			c0.6,0,1.2,0.1,1.7,0.4s0.8,0.6,1.1,1c0.3,0.4,0.5,0.9,0.6,1.4c0.2,0.5,0.3,1,0.3,1.6c0,0.4,0,0.9,0,1.2c0,0.1,0,0.2,0,0.4
			c0,0.5,0,0.9-0.1,1.4l-0.5,4.6C240.7,119.4,238.8,122,235.7,122z M235.3,119.3c0.3,0,0.6-0.1,0.8-0.2c0.2-0.1,0.4-0.3,0.6-0.5
			s0.3-0.5,0.4-0.8c0.1-0.3,0.2-0.6,0.3-1.1c0.1-0.4,0.2-0.8,0.2-1.2c0.1-0.4,0.1-0.9,0.2-1.4l0.5-4.6c0.1-0.9,0.1-1.6,0.1-2.3
			s-0.1-1.2-0.4-1.6c-0.3-0.4-0.7-0.6-1.3-0.6c-0.8,0-1.7,0.3-2.6,1l-1.3,12.4C233.5,119,234.3,119.3,235.3,119.3z"/>
		<path class="st0" d="M247.1,122c-1.1,0-2-0.5-2.6-1.4c-0.6-0.8-0.8-1.6-0.8-2.6c0-0.2,0-0.4,0-0.5c0.1-0.7,0.2-1.3,0.4-1.8
			s0.4-1,0.6-1.4c0.2-0.4,0.6-0.8,1.1-1.2c0.5-0.4,0.9-0.7,1.2-1s0.8-0.5,1.6-0.9c0.8-0.4,1.3-0.6,1.6-0.7c0.3-0.1,0.9-0.4,1.9-0.7
			c0.1,0,0.1,0,0.1,0l0.1-1.4c0.1-0.5,0.1-1,0.1-1.4c0-0.6-0.1-1-0.2-1.4c-0.2-0.5-0.7-0.8-1.5-0.8c-1.4,0-2.2,0.9-2.4,2.8l-0.1,0.9
			l-3.4-0.1c0-0.1,0-0.2,0-0.3c0-0.2,0-0.3,0-0.4c0.3-1.9,1-3.3,2-4.2c1.1-0.9,2.5-1.3,4.2-1.3c1.8,0,3.1,0.5,3.8,1.5
			c0.5,0.8,0.8,1.9,0.8,3.3c0,0.4,0,0.9-0.1,1.4l-0.9,8.9c-0.1,1.1-0.2,2.3-0.2,3.5c0,0.3,0,0.7,0,1h-3.1c-0.1-1.1-0.2-2-0.2-2.8
			c-0.4,0.9-0.9,1.6-1.6,2.2S248.1,122,247.1,122z M248.8,119c0.5,0,1-0.2,1.4-0.5c0.5-0.4,0.9-0.7,1.1-1.1l0.6-5.5
			c-0.1,0-0.2,0.1-0.3,0.2c-0.6,0.3-1,0.5-1.3,0.7c-0.3,0.2-0.6,0.4-1.1,0.7c-0.4,0.3-0.8,0.6-1,0.9c-0.2,0.3-0.4,0.6-0.6,1
			c-0.2,0.4-0.3,0.8-0.4,1.3c0,0.2,0,0.4,0,0.5c0,0.6,0.1,1,0.3,1.3C247.8,118.8,248.2,119,248.8,119z"/>
		<path class="st0" d="M257.8,121.7l2-19.3h3.4l-0.2,1.9c1.7-1.5,3.4-2.2,4.9-2.2c0.5,0,1,0.1,1.4,0.3s0.6,0.5,0.8,0.9
			c0.2,0.4,0.3,0.8,0.3,1.3c0,0.2,0,0.4,0,0.6c0,0.3,0,0.5-0.1,0.8l-1.6,15.6h-3.4l1.5-14.6c0-0.2,0-0.4,0-0.6c0-0.5,0-0.8-0.2-1.1
			c-0.2-0.4-0.6-0.5-1.2-0.5c-0.7,0-1.7,0.4-2.7,1.3l-1.6,15.6H257.8z"/>
		<path class="st0" d="M276.7,122C276.7,122,276.7,122,276.7,122c-1.7,0-2.8-0.6-3.4-1.8c-0.4-0.8-0.7-2-0.7-3.6
			c0-0.7,0-1.5,0.1-2.4l0.4-3.7c0.1-1,0.2-1.8,0.4-2.6s0.4-1.5,0.7-2.2c0.3-0.7,0.6-1.3,1-1.8c0.4-0.5,0.9-0.9,1.5-1.2
			c0.6-0.3,1.3-0.4,2-0.4c1.1,0,2.2,0.5,3.1,1.5l0.9-8.9h3.4l-2.8,27h-3.4l0.1-1.2C279,121.5,277.9,122,276.7,122z M277.9,119.3
			c0.7,0,1.5-0.3,2.3-0.8l1.3-12.7c-0.7-0.6-1.5-0.9-2.2-0.9c-0.4,0-0.8,0.1-1.1,0.3s-0.6,0.5-0.8,0.9s-0.3,0.8-0.5,1.3
			c-0.1,0.5-0.2,1-0.3,1.7l-0.6,5.4c-0.1,0.8-0.1,1.6-0.1,2.3c0,0.1,0,0.2,0,0.2c0,0.7,0.2,1.3,0.5,1.7
			C276.8,119.1,277.3,119.3,277.9,119.3z"/>
		<path class="st0" d="M286.1,126.6l0.3-2.6c0.8,0,1.5,0,2-0.1c0.5-0.1,0.9-0.2,1.1-0.4c0.3-0.2,0.5-0.4,0.5-0.7
			c0-0.2,0.1-0.4,0.1-0.6c0-0.2,0-0.4,0-0.6c-0.1-0.8-0.2-1.7-0.3-2.7l-2.2-16.4h3.5l1.1,14.6l4.1-14.6h3.5l-6.8,20.3
			c-0.5,1.4-1.2,2.3-2.2,2.9s-2.4,0.8-4.2,0.8H286.1z"/>
	</g>
	<g>
		<path class="st0" d="M168.1,97.8c-3.5-3.5-8.1-5.4-13.1-5.4s-9.6,1.9-13.1,5.4c-6.7,6.7-7.2,17.5-1.2,24.8
			c-0.8,1.7-1.8,2.8-2.9,3.4c-0.7,0.3-1.1,1.1-0.9,1.8c0.1,0.8,0.7,1.3,1.4,1.4c0.4,0.1,0.9,0.1,1.3,0.1c2.3,0,4.7-0.8,6.6-2.2
			c2.7,1.4,5.7,2.2,8.8,2.2c4.9,0,9.6-1.9,13.1-5.4c3.5-3.5,5.4-8.1,5.4-13.1S171.6,101.3,168.1,97.8L168.1,97.8z M166.6,122.5
			c-3.1,3.1-7.2,4.8-11.6,4.8c-2.9,0-5.8-0.8-8.3-2.3c-0.2-0.1-0.3-0.1-0.5-0.1c-0.2,0-0.5,0.1-0.6,0.2c-2.4,1.8-4.8,2.1-5.8,2.1
			c1.2-0.9,2.3-2.4,3.2-4.4c0.2-0.4,0.1-0.8-0.2-1.1c-5.7-6.5-5.4-16.3,0.7-22.5c3.1-3.1,7.2-4.8,11.6-4.8c4.4,0,8.5,1.7,11.6,4.8
			C173,105.7,173,116.1,166.6,122.5L166.6,122.5z M166.6,122.5"/>
		<rect x="136.5" y="92.4" class="st1" width="37" height="37"/>
		<path class="st0" d="M159.7,102.4c-1.7,0-3.2,0.7-4.4,1.8l-0.3,0.3l-0.3-0.3c-1.2-1.2-2.8-1.8-4.4-1.8c-1.7,0-3.2,0.7-4.4,1.8
			c-1.2,1.2-1.8,2.8-1.8,4.4c0,1.7,0.7,3.2,1.8,4.4l8.4,8.4c0.2,0.2,0.5,0.3,0.7,0.3c0.3,0,0.5-0.1,0.7-0.3l8.4-8.4
			c1.2-1.2,1.8-2.8,1.8-4.4c0-1.7-0.7-3.2-1.8-4.4C162.9,103.1,161.4,102.4,159.7,102.4L159.7,102.4z M162.6,111.6l-7.6,7.6
			l-7.6-7.6c-0.8-0.8-1.2-1.8-1.2-3s0.4-2.2,1.2-2.9c0.8-0.8,1.8-1.2,2.9-1.2c1.1,0,2.2,0.4,3,1.2l1,1c0.4,0.4,1.1,0.4,1.5,0l1-1
			c0.8-0.8,1.8-1.2,3-1.2c1.1,0,2.2,0.4,2.9,1.2c0.8,0.8,1.2,1.8,1.2,2.9C163.9,109.8,163.4,110.9,162.6,111.6L162.6,111.6z
			 M162.6,111.6"/>
	</g>
</g>
</svg>
